<?xml version="1.0" encoding="UTF-8" standalone="no"?>
<svg xmlns:dc="http://purl.org/dc/elements/1.1/" xmlns:cc="http://creativecommons.org/ns#" xmlns:rdf="http://www.w3.org/1999/02/22-rdf-syntax-ns#" xmlns:svg="http://www.w3.org/2000/svg" xmlns="http://www.w3.org/2000/svg" id="svg108" version="1.1" viewBox="0 0 7.8453531 10.211937" height="10.211937mm" width="7.8453531mm">
  <defs id="defs102">
    <clipPath id="clipPath87">
      <rect style="fill:#ffffff;stroke-width:7.49999" id="rect89" width="222.38795" height="289.4722" x="2575.75" y="74.836388" transform="matrix(0,1,1,0,0,0)"></rect>
    </clipPath>
  </defs>
  <metadata id="metadata105"></metadata>
  <g transform="translate(-21.023752,-109.79879)" id="layer1">
    <path transform="matrix(0,0.03527778,0.03527778,0,-69.786656,107.17751)" id="path68" style="fill:#ffffff;fill-opacity:1;fill-rule:nonzero;stroke:none" d="m 205.039,2455.87 2.988,-0.45 0.852,5.81 5.234,-2.77 1.426,2.63 -5.363,2.66 4.23,4.28 -2.363,2.22 -4.113,-4.43 -2.547,5.41 -2.793,-1.43 2.683,-5.34 -5.781,-0.98 0.598,-3.05 5.769,1.11 z m 137.852,338.15 -15.84,-8.23 v -10.11 l -34.219,-17.33 v 9.71 l -15.84,-8.22 v -9.51 l -6.855,-3.45 v 9.41 l -15.848,-8.19 v -9.25 L 250,2736.67 v 9.18 l -15.82,-8.21 v -8.96 l -4.278,-2.18 v 8.92 l -15.839,-8.21 v -8.73 l -5.125,-2.59 v 8.68 l -15.852,-8.23 v -8.47 l -9.863,-4.99 v 8.36 l -48.446,-25.13 H 73.5742 v -3.27 h 61.2028 l 48.446,-25.11 v 8.33 l 9.863,-4.95 v -8.49 l 15.852,-8.22 v 8.69 l 5.125,-2.59 v -8.73 l 15.839,-8.22 v 8.92 l 4.278,-2.18 v -8.96 l 15.82,-8.22 v 9.19 l 4.289,-2.18 v -9.22 l 15.848,-8.21 v 9.4 l 6.855,-3.46 v -9.49 l 15.84,-8.22 v 9.69 l 34.219,-17.32 v -10.11 l 15.84,-8.23 v 10.32 l 18.886,-9.52 v 19.7 l -18.886,8.53 v 71.06 l 18.886,-0.82 v 20.55 l -18.886,-0.84 v 71.06 l 18.886,8.53 v 19.7 l -18.886,-9.52 z m -65.879,-58.91 v -44.1 l -6.903,-0.32 v 41.33 z m -22.696,-10.29 v -34.81 l -4.343,-0.2 v 33.08 z m -20.097,-9.1 v -26.62 l -4.344,-0.16 v 24.83 z m -20.125,-9.13 v -18.36 l -5.188,-0.23 v 16.27 z m -20.977,-9.52 v -9.77 l -9.922,-0.44 v 5.76 z m -9.922,-20.72 v 5.75 l 9.922,-0.42 v -9.8 z m 25.711,-11.62 v 16.25 l 5.188,-0.24 v -18.36 z m 20.969,-9.52 v 24.85 l 4.344,-0.2 v -26.59 z m 20.098,-9.14 v 33.08 l 4.343,-0.17 v -34.83 z m 20.136,-9.1 v 41.31 l 6.903,-0.32 v -44.1 z m 56.961,-25.82 -34.265,15.54 v 50.58 l 34.265,-1.52 z m 0,82.06 -34.265,-1.5 v 50.58 l 34.265,15.53 z M 149.199,2497.27 c 0.52,-1.14 0.43,-2.31 -0.195,-3.5 -0.82,-1.59 -2.039,-2.38 -3.711,-2.44 -0.965,-0.03 -2.266,0.26 -3.828,0.88 l -2.656,1.05 -2.559,0.76 -2.402,0.17 1.75,3.32 c 1.336,2.52 3.425,3.74 6.297,3.63 1.73,-0.05 3.293,-0.45 4.757,-1.22 1.192,-0.61 2.039,-1.53 2.547,-2.65 z m 26.192,-46.25 12.422,35.87 -4.618,1.59 -10.09,-29.07 -8.027,35.32 -5.449,1.9 -12.402,-35.83 4.621,-1.61 10.027,28.95 7.805,-35.13 z m -40.723,39.72 6.965,-2.6 c 2.441,-0.95 4.715,-1.15 6.785,-0.64 2.07,0.51 3.672,1.9 4.895,4.17 1.082,2.1 1.277,4.2 0.574,6.32 -0.711,2.13 -2.215,3.81 -4.453,4.99 -1.895,1 -3.829,1.5 -5.84,1.5 -1.992,0.03 -3.692,-0.31 -5.098,-0.96 l 0.481,2.64 c -0.118,1.33 -0.879,2.39 -2.305,3.11 l -1.418,0.66 -1.641,0.42 -1.621,-2.99 0.801,-0.3 0.656,-0.31 0.906,-0.96 -0.292,-1.16 -7.403,-14.06 c -1.211,-2.33 -1.238,-4.48 -0.047,-6.55 1.219,-2.07 3.262,-3.85 6.153,-5.39 2.468,-1.29 4.961,-1.83 7.449,-1.64 2.531,0.17 4.601,1.75 6.269,4.76 l -3.796,1.98 c -0.793,-1.16 -1.641,-1.91 -2.473,-2.28 -1.504,-0.69 -3.309,-0.47 -5.469,0.67 -1.844,0.97 -3.113,2.04 -3.769,3.2 -0.653,1.14 -0.625,2.41 0.089,3.8 l 1.082,1.45 c 0.645,0.48 1.497,0.56 2.52,0.17 z m -24.246,-7.11 4.258,6.34 3.113,-2.1 2.16,3.24 -3.117,2.09 10.117,15.17 c 0.957,1.47 1.445,2.89 1.426,4.22 -0.039,1.37 -0.918,2.62 -2.734,3.84 l -1.582,0.93 -1.524,0.67 -2.109,-3.14 0.793,-0.43 0.605,-0.4 1.328,-1.21 c 0.371,-0.62 0.262,-1.33 -0.265,-2.13 l -9.942,-14.94 -3.652,2.41 -2.168,-3.2 3.664,-2.44 -4.25,-6.35 z m -12.3243,18.13 3.6603,-3.06 11.984,14.51 c 1.504,1.79 2.41,3.49 2.723,5.08 0.598,2.89 -0.567,5.58 -3.543,8.02 -1.895,1.59 -3.965,2.35 -6.242,2.35 -1.121,-0.03 -2.266,-0.22 -3.367,-0.68 l 2.636,3.13 -3.371,2.81 -17.6366,-21.33 3.6055,-2.95 8.6406,10.46 c 1.7305,2.07 3.3205,3.53 4.7655,4.31 2.727,1.5 5.274,1.28 7.656,-0.71 1.7,-1.39 2.297,-2.95 1.868,-4.72 l -1.7,-3.1 z M 78,2519.45 l 19.8125,19.25 -3.2305,3.31 -11.4257,-11.08 c -1.4063,-1.36 -3.0977,-2.1 -5.0391,-2.24 -1.9649,-0.14 -3.7695,0.63 -5.4219,2.33 l -0.5078,0.56 -0.4883,0.63 -3.4844,-3.43 0.6836,-0.83 0.2813,-0.34 c 1.2695,-1.33 2.8906,-2.04 4.8555,-2.12 1.9218,-0.09 3.3671,0.06 4.2773,0.42 l -3.4102,-3.27 z m -0.0898,27.93 2.7539,-3.49 c 2.0429,1.79 3.2617,3.91 3.6328,6.4 0.3711,2.5 -0.7422,5.39 -3.3203,8.66 -2.3828,3.02 -4.8516,4.72 -7.4297,5.09 -2.5508,0.37 -4.8242,-0.2 -6.7383,-1.73 -1.9922,-1.56 -2.8711,-3.46 -2.6758,-5.64 0.1445,-1.36 0.9453,-3.62 2.3828,-6.78 l 1.336,-2.92 1.0273,-3.08 c 0.1641,-1.42 -0.207,-2.46 -1.1445,-3.21 -0.8477,-0.68 -1.836,-0.84 -2.918,-0.56 -1.1055,0.31 -2.207,1.16 -3.293,2.58 -1.6679,2.1 -2.3515,3.93 -2.0898,5.55 0.2539,1.02 0.7617,1.91 1.5352,2.61 l -2.754,3.49 c -1.4179,-1.08 -2.3554,-2.55 -2.8632,-4.43 -0.7422,-2.97 0.1757,-6.09 2.7734,-9.41 2.0234,-2.52 4.2305,-4.05 6.6602,-4.53 2.4726,-0.51 4.707,0.06 6.75,1.68 1.7265,1.36 2.5,3.22 2.207,5.57 -0.1094,1.34 -0.6758,3.12 -1.6992,5.33 l -1.5938,3.49 -1.4336,3.97 c -0.1679,1.19 0.2032,2.18 1.1328,2.9 1.1914,0.96 2.5196,1.15 3.9063,0.56 1.3945,-0.56 2.6445,-1.56 3.7187,-2.92 1.7774,-2.26 2.4922,-4.33 2.0899,-6.16 -0.2149,-0.99 -0.8672,-2.01 -1.9531,-3.02 z m -38.8868,25.53 c -0.2929,-2.46 0.3711,-5.02 1.9532,-7.68 1.8945,-3.12 4.6015,-4.98 8.1367,-5.61 3.5156,-0.62 7.3711,0.34 11.5117,2.83 3.3984,2.04 5.6641,4.68 6.8281,7.88 1.1328,3.22 0.7617,6.35 -1.1054,9.44 -1.6407,2.75 -3.7383,4.58 -6.2579,5.44 -2.5312,0.88 -5.4804,0.63 -8.9062,-0.85 l 2.3516,-3.88 c 1.9921,0.71 3.7695,0.88 5.3906,0.54 1.582,-0.37 2.8906,-1.36 3.8789,-3.01 1.2969,-2.15 1.4531,-4.22 0.4297,-6.19 -1.0156,-2 -2.7266,-3.67 -5.1094,-5.12 -2.3516,-1.41 -4.5312,-2.26 -6.5703,-2.55 -3.1172,-0.39 -5.4688,0.69 -7.0039,3.21 -1.1016,1.84 -1.4453,3.48 -0.9649,4.94 0.4571,1.41 1.3555,2.68 2.6641,3.79 l -2.3242,3.88 c -2.9688,-2.26 -4.6172,-4.62 -4.9024,-7.06 z m -15.8984,4.59 34.8633,15.23 -1.875,4.28 -13.4375,-5.87 c -3.3672,-1.48 -5.9766,-1.73 -7.8203,-0.85 -1.836,0.91 -3.1563,2.24 -3.9063,4.01 -0.9101,2.12 -0.8515,3.88 0.1953,5.23 0.6524,0.85 1.9219,1.67 3.7696,2.49 l 15.9648,6.98 -1.9023,4.36 -16.25,-7.08 c -2.4922,-1.07 -4.2774,-2.3 -5.3828,-3.59 -1.9922,-2.44 -2.1758,-5.48 -0.5938,-9.14 0.9063,-2.07 2.0977,-3.57 3.5938,-4.57 l 3.8554,-1.53 -12.957,-5.63 z m -18.08594,64.04 7.50004,1.27 0.6562,-3.74 3.7969,0.66 -0.6445,3.71 18.0586,3.04 c 1.746,0.3 3.1132,0.93 4.082,1.86 0.957,0.94 1.2695,2.47 0.9062,4.59 l -0.3984,1.83 -0.5977,1.58 -3.7109,-0.63 0.2266,-0.91 0.1054,-0.7 0.0391,-1.84 c -0.2031,-0.69 -0.7891,-1.13 -1.7383,-1.28 l -17.7148,-3.01 -0.7305,4.41 -3.8008,-0.66 0.7422,-4.36 -7.54687,-1.29 z m 14.05474,-25.63 1.25,-4.47 18.1445,5.04 c 2.2656,0.62 3.9922,1.5 5.1562,2.61 2.1485,2.07 2.7539,4.96 1.6993,8.68 -0.6446,2.37 -1.9258,4.22 -3.7422,5.49 l -3.1133,1.42 3.8476,1.02 -1.1914,4.22 -26.6406,-7.42 1.2188,-4.44 13.1836,3.64 c 2.6093,0.74 4.7265,1 6.3984,0.82 3.125,-0.34 5.1055,-2.01 5.957,-5.07 0.5664,-2.13 0.1758,-3.8 -1.1836,-5.05 -0.7695,-0.65 -1.8242,-1.19 -3.2109,-1.55 z m 15.1953,41.73 3.6211,0.28 -1.6407,23.12 -4.1406,-0.3 1.2305,-16.74 -20.8477,14.76 -3.76951,-0.25 1.51171,-21.32 4.1328,0.28 -1.0742,15.05 z m -23.6719,44.66 c -1.13282,-1.6 -1.75001,-3.47 -1.87501,-5.63 -0.1875,-3.19 0.94531,-6.01 3.40621,-8.42 2.461,-2.43 5.9883,-3.77 10.6055,-4.05 4.9024,-0.27 8.4688,0.62 10.7422,2.75 2.2383,2.15 3.457,4.71 3.6328,7.71 0.1367,2.16 -0.1172,3.91 -0.7109,5.24 -0.625,1.36 -1.6211,2.56 -2.9805,3.56 3.8281,-0.18 6.4375,-0.61 7.8711,-1.37 2.4805,-1.25 3.5859,-3.66 3.3906,-7.2 -0.1484,-2.27 -0.7734,-3.88 -1.875,-4.88 -0.7148,-0.62 -1.6992,-1.01 -2.9804,-1.19 l -0.2813,-4.79 c 2.8594,0.09 5.0078,1.11 6.4648,3.06 1.4649,1.96 2.2657,4.43 2.4415,7.37 0.3007,5.36 -1.3399,9.1 -4.961,11.26 -1.9648,1.14 -4.7187,1.81 -8.2226,2.05 l -25.0586,1.46 -0.26566,-4.22 3.35156,-0.2 z m 4.9414,0.18 c 1.7266,1.31 4.3242,1.88 7.7539,1.65 2.3047,-0.11 4.2656,-0.62 5.9375,-1.47 2.9492,-1.53 4.3047,-3.95 4.1094,-7.29 -0.1172,-2.13 -1.0235,-3.77 -2.7539,-4.93 -1.6992,-1.17 -4.1094,-1.65 -7.2266,-1.48 -2.6641,0.17 -4.793,0.6 -6.4141,1.33 -3,1.39 -4.3867,3.73 -4.2187,6.98 0.1367,2.16 1.082,3.91 2.8125,5.21 z m -0.2656,33.31 c -1.2696,-1.62 -2.0977,-3.37 -2.461,-5.3 -0.7695,-3.77 -0.0273,-7.12 2.2071,-10.01 2.2656,-2.89 5.5586,-4.79 9.8945,-5.64 4.4219,-0.89 8.1133,-0.41 11.0352,1.42 2.9179,1.85 4.6953,4.42 5.3789,7.77 l 0.332,3.77 c -0.0781,2.12 -0.6445,4.02 -1.6992,5.68 l -2.5469,2.79 -3.0586,1.86 -0.9062,-4.47 c 1.1406,-0.59 2.0703,-1.36 2.8398,-2.35 1.3008,-1.7 1.6992,-3.74 1.2305,-6.08 -0.5078,-2.53 -1.7266,-4.23 -3.6133,-5.11 -1.9336,-0.88 -4.2774,-1.08 -7.0586,-0.6 l 3.9648,19.73 c -2.7461,0.57 -4.7851,0.82 -6.0937,0.79 -1.875,0.1 -3.5742,-0.22 -5.1289,-0.85 -1.6211,-0.64 -3.0664,-1.78 -4.3164,-3.4 z m 10.9375,-0.51 -2.9961,-14.97 c -2.336,0.57 -4.1133,1.7 -5.3633,3.41 -1.25,1.72 -1.6406,3.62 -1.2188,5.69 0.5743,2.89 2.0977,4.74 4.5704,5.53 1.2968,0.45 2.9765,0.54 5.0078,0.34 z m 10.7812,11.62 -1.4453,-4.21 c 2.6367,-0.78 5.0977,-0.66 7.4336,0.37 2.3125,1.01 4.1289,3.46 5.4688,7.33 1.2187,3.61 1.2968,6.58 0.2148,8.93 -1.0938,2.35 -2.8047,3.91 -5.1289,4.73 -2.4102,0.81 -4.4531,0.57 -6.1797,-0.76 -1.0664,-0.85 -2.5508,-2.69 -4.3867,-5.58 l -1.6992,-2.64 -2.0391,-2.5 c -1.0859,-0.91 -2.1875,-1.15 -3.3203,-0.75 -1.0274,0.33 -1.7109,1.06 -2.043,2.12 -0.3398,1.07 -0.2344,2.43 0.3321,4.11 0.8593,2.46 2.0117,4.02 3.496,4.62 1.0157,0.33 2.043,0.4 3.0274,0.13 l 1.4258,4.13 c -1.668,0.61 -3.4375,0.64 -5.2735,0.04 -2.8984,-0.92 -5.0195,-3.36 -6.3476,-7.31 -1.0547,-3.01 -1.0821,-5.64 -0.1758,-7.94 0.9375,-2.32 2.5977,-3.88 5.0977,-4.73 2.1093,-0.71 4.0546,-0.34 5.8984,1.14 1.0469,0.8 2.2187,2.23 3.5469,4.27 l 2.0703,3.19 2.5195,3.3 c 0.9063,0.77 1.9336,1 3.0352,0.6 1.4765,-0.47 2.3242,-1.48 2.6093,-2.95 0.2735,-1.47 0.1368,-3.02 -0.4218,-4.65 -0.9375,-2.72 -2.2735,-4.39 -4.0313,-5.01 -0.9883,-0.35 -2.207,-0.35 -3.6836,0.02 z m 9.9414,42.55 -6.8242,-13.69 c -2.0898,1.13 -3.5156,2.7 -4.25,4.68 -0.7422,1.98 -0.6523,3.92 0.3047,5.84 1.3359,2.64 3.2891,4.05 5.8672,4.16 1.3984,0.09 3.039,-0.24 4.9023,-0.99 z m -10.4297,3.3 c -1.6406,-1.23 -2.8906,-2.73 -3.7695,-4.46 -1.7266,-3.45 -1.8945,-6.88 -0.5078,-10.26 1.418,-3.38 4.082,-6.07 8.0469,-8.05 4.0351,-2.02 7.6953,-2.5 10.9961,-1.5 3.2929,1.01 5.7031,3.06 7.2382,6.12 l 1.3282,3.58 c 0.4765,2.07 0.457,4.05 -0.1367,5.88 l -1.6993,3.41 -2.4922,2.58 -2.0507,-4.05 c 0.9375,-0.86 1.6523,-1.88 2.1015,-3.04 0.8008,-1.98 0.6446,-4.07 -0.4218,-6.24 -1.1407,-2.29 -2.7813,-3.62 -4.8516,-3.97 -2.0703,-0.34 -4.3672,0.09 -6.9258,1.28 l 8.9961,18 -5.6055,2.36 c -1.8281,0.53 -3.5547,0.7 -5.1953,0.5 -1.7304,-0.2 -3.4297,-0.93 -5.0508,-2.14 z m 4.4063,28.65 31.1406,-21.89 2.668,3.83 -31.125,21.86 z m -6.9258,-10.75 32.2266,-20.15 2.4726,3.94 -32.207,20.19 z m 39.375,5.39 -2.8906,-3.43 c 2.1797,-1.67 4.5312,-2.47 7.0898,-2.32 2.5196,0.11 5.1289,1.75 7.7852,4.94 2.5,2.95 3.6601,5.69 3.5234,8.29 -0.1758,2.59 -1.1914,4.68 -3.0664,6.27 -1.9531,1.64 -3.9648,2.15 -6.0351,1.53 -1.3282,-0.37 -3.3672,-1.62 -6.1797,-3.69 l -2.5508,-1.87 -2.8594,-1.61 c -1.3398,-0.49 -2.4726,-0.32 -3.3789,0.45 -0.8516,0.71 -1.2226,1.64 -1.1328,2.78 0.0586,1.1 0.6836,2.38 1.8437,3.75 1.7305,2.03 3.3985,3.08 5.0508,3.11 1.0625,-0.03 2.0391,-0.37 2.8907,-0.97 l 2.8203,3.35 c -1.3282,1.19 -2.9961,1.81 -4.9219,1.93 -3.0664,0.17 -5.957,-1.36 -8.6719,-4.6 -2.0703,-2.45 -3.125,-4.93 -3.0859,-7.42 0,-2.5 1.0156,-4.59 3,-6.3 1.6992,-1.41 3.6797,-1.75 5.9453,-1.02 1.2812,0.37 2.9219,1.31 4.9141,2.75 l 3.1132,2.27 3.6055,2.21 c 1.1602,0.43 2.1758,0.26 3.0859,-0.51 1.1914,-1.02 1.6407,-2.27 1.3555,-3.77 -0.2812,-1.47 -0.9844,-2.89 -2.0898,-4.22 -1.9024,-2.24 -3.8086,-3.35 -5.7032,-3.26 -1.0234,0.03 -2.1875,0.48 -3.457,1.36 z m 17.0703,43.11 c -2.4804,-0.22 -4.8515,-1.38 -7.1562,-3.47 -2.6563,-2.5 -3.9571,-5.54 -3.8477,-9.11 0.1055,-3.6 1.8047,-7.17 5.0977,-10.72 2.7031,-2.92 5.7304,-4.62 9.1015,-5.1 3.3672,-0.48 6.3755,0.51 9.0435,2.98 2.351,2.18 3.718,4.59 4.089,7.25 0.352,2.65 -0.515,5.5 -2.617,8.54 l -3.281,-3.06 c 1.047,-1.79 1.582,-3.52 1.523,-5.14 -0.027,-1.64 -0.742,-3.09 -2.148,-4.42 -1.8751,-1.7 -3.8556,-2.27 -6.004,-1.67 -2.168,0.6 -4.1406,1.9 -6.0469,3.94 -1.8633,2.01 -3.1445,4.01 -3.7968,5.92 -1.0274,3.01 -0.4493,5.5 1.7265,7.52 1.5938,1.47 3.1563,2.12 4.6211,1.98 1.4727,-0.16 2.918,-0.76 4.2461,-1.81 l 3.3203,3.06 c -2.8008,2.44 -5.4375,3.54 -7.8711,3.31 z m 49.1138,7.54 c -1.223,0.24 -2.149,0.97 -2.747,2.16 -0.82,1.56 -0.73,3.06 0.227,4.48 l 2.918,2.69 2.305,1.59 2.089,1.67 1.504,1.81 1.731,-3.34 c 1.308,-2.58 1.101,-4.98 -0.625,-7.29 -1.047,-1.38 -2.266,-2.46 -3.742,-3.2 -1.192,-0.62 -2.41,-0.82 -3.66,-0.57 z m -47.7544,8.99 21.9334,-31.04 3.797,2.67 -8.476,11.99 c -2.118,3 -2.918,5.5 -2.411,7.48 0.547,2.01 1.59,3.57 3.184,4.72 1.922,1.35 3.652,1.63 5.242,0.89 0.969,-0.48 2.031,-1.53 3.195,-3.2 l 10.067,-14.23 3.808,2.69 -10.242,14.46 c -1.562,2.24 -3.117,3.74 -4.621,4.56 -2.781,1.45 -5.808,1.02 -9.101,-1.3 -1.805,-1.28 -3.055,-2.75 -3.711,-4.42 -0.399,-0.97 -0.645,-2.32 -0.743,-4.11 l -8.1245,11.54 z m 50.7694,6.75 -6.152,-4.23 c -2.156,-1.47 -3.633,-3.2 -4.403,-5.18 -0.761,-2.02 -0.558,-4.17 0.633,-6.44 1.067,-2.1 2.688,-3.46 4.836,-4.11 2.156,-0.65 4.403,-0.4 6.66,0.79 1.903,0.97 3.407,2.27 4.571,3.89 1.16,1.61 1.875,3.2 2.117,4.73 l 1.906,-1.9 c 1.172,-0.65 2.442,-0.62 3.856,0.12 l 1.367,0.76 1.281,1.11 -1.562,3.03 -0.684,-0.48 -0.598,-0.37 c -0.574,-0.28 -1.023,-0.34 -1.297,-0.17 l -0.832,0.91 -7.285,14.17 c -1.219,2.32 -3.008,3.6 -5.359,3.8 -2.375,0.17 -4.992,-0.46 -7.883,-1.93 -2.461,-1.27 -4.355,-3 -5.605,-5.16 -1.278,-2.14 -1.161,-4.76 0.312,-7.82 l 3.879,1.98 c -0.508,1.33 -0.656,2.45 -0.481,3.35 0.313,1.58 1.504,2.95 3.665,4.06 1.804,0.93 3.398,1.35 4.695,1.25 1.34,-0.13 2.363,-0.89 3.066,-2.28 l 0.567,-1.7 c 0.031,-0.85 -0.391,-1.56 -1.27,-2.18 z m 23.156,29.48 2.325,-7.34 -3.575,-1.11 1.161,-3.66 3.535,1.11 5.508,-17.46 c 0.539,-1.7 1.339,-2.95 2.402,-3.8 1.055,-0.82 2.648,-0.91 4.687,-0.26 l 1.789,0.66 1.473,0.83 -1.133,3.53 -0.828,-0.34 -0.683,-0.23 -1.809,-0.28 c -0.742,0.11 -1.25,0.62 -1.531,1.56 l -5.41,17.22 4.218,1.32 -1.144,3.63 -4.219,-1.34 -2.285,7.35 z m -14.093,-4.48 c -0.223,-1.05 -0.028,-2.5 0.597,-4.28 l 1.59,-4.06 -3.66,-1.41 1.336,-3.38 3.625,1.42 8.68,-22.22 4.308,1.7 -8.683,22.19 4.277,1.68 -1.297,3.4 -4.309,-1.67 -1.64,5.31 c 0,0.78 0.644,1.43 1.984,1.94 l 0.567,0.2 0.984,0.31 -1.523,3.98 -1.024,-0.32 -0.851,-0.31 c -2.86,-1.14 -4.539,-2.61 -4.961,-4.48 z m 54.054,5.75 -2.968,-0.48 0.925,-5.9 -5.839,1.14 -0.555,-2.95 5.887,-0.96 -2.754,-5.22 2.902,-1.42 2.605,5.34 4.082,-4.29 2.219,2.21 -4.14,4.14 5.203,2.7 -1.434,2.72 -5.226,-2.78 z m 54.539,-441.37 4.766,0.25 c -0.73,8.24 -6.805,11.59 -14.48,11.22 -6.895,-0.37 -13.497,-4.08 -13.125,-11.74 0.339,-6.91 6.523,-8.33 12.578,-9.35 l 4.422,-0.78 3.937,-1.09 c 2.332,-0.91 3.926,-2.32 4.063,-4.9 0.281,-5.45 -4.68,-7.15 -9.211,-7.36 -5.704,-0.29 -11.121,2.21 -11.426,8.52 l -4.766,-0.23 c 0.449,-9.18 7.793,-12.95 16.242,-12.53 6.864,0.34 14.571,3.97 14.18,11.99 -0.402,7.4 -6.516,9.22 -12.59,10.26 l -4.539,0.75 -3.937,0.93 c -2.293,0.82 -3.856,2.09 -3.965,4.42 -0.235,4.9 3.906,6.66 8.137,6.86 5.156,0.29 8.867,-1.87 9.714,-7.22 z m 29.289,-3.55 4.559,0.85 c -1.816,6.26 -7.227,8.23 -13.32,7.06 -8.504,-1.62 -11.473,-8.74 -9.949,-16.78 1.503,-8 6.972,-12.89 15.164,-11.33 6.75,1.26 10.117,5.94 9.863,12.66 l -4.5,-0.84 c 0.195,-4.15 -1.906,-7.13 -6.152,-7.95 -5.618,-1.05 -8.762,3.4 -9.7,8.34 -1.023,5.44 0,10.86 6.379,12.07 3.633,0.68 6.348,-0.84 7.656,-4.08 z m 2.86,20.25 11.652,-35.9 4.278,1.39 -4.758,14.68 c -1.532,4.68 -0.137,8.96 5.039,10.67 3.261,1.04 5.957,-0.35 6.984,-3.52 l 5.711,-17.61 4.289,1.39 -5.558,17.09 c -1.844,5.6 -5.215,8.82 -12.051,6.61 -3.114,-1.01 -6.375,-3.51 -6.746,-7.09 l -0.11,-0.05 -4.48,13.72 z m 61.308,-16.09 -11.726,24.67 -4.063,-1.92 6.641,-13.96 c 2.117,-4.41 1.297,-8.83 -3.625,-11.2 -3.094,-1.46 -5.938,-0.42 -7.371,2.58 l -7.942,16.71 -4.082,-1.94 7.747,-16.21 c 2.519,-5.3 6.289,-8.08 12.773,-4.99 3.523,1.67 5.613,4.43 5.867,8.3 l 0.117,0.06 1.868,-3.93 z m -1.668,30.84 -4.277,7.01 -3.828,-2.36 4.246,-7 -3.965,-2.4 2.063,-3.37 3.972,2.4 9.055,-14.84 c 2.598,-4.32 4.668,-4.15 8.66,-1.74 l 2.93,1.79 -2.07,3.38 -1.766,-1.06 c -2.375,-1.44 -3.059,-1.44 -4.141,0.31 l -8.839,14.48 4.648,2.85 -2.039,3.4 z m 20.438,-15.55 2.043,-2.79 18.484,13.78 -2.351,3.19 -13.985,-10.41 1.25,26.25 -1.836,2.44 -17.011,-12.68 2.351,-3.17 12.383,9.22 z m 21.289,23.18 -3.281,-3.09 c 4.836,-4.75 10.312,-3 14.785,1.2 4.035,3.79 7.012,9.5 2.559,14.22 -3.594,3.86 -7.86,1.9 -11.825,-0.42 l -5.468,-3.07 c -1.711,-0.68 -3.204,-0.78 -4.29,0.41 -1.894,2 -0.136,4.67 1.856,6.51 2.148,2.04 5.156,3.32 7.754,0.99 l 3.262,3.09 c -4.813,4.59 -9.637,2.7 -14.024,-1.43 -3.465,-3.26 -5.879,-8.66 -2.109,-12.66 3.586,-3.79 7.863,-1.8 11.808,0.49 l 2.891,1.7 2.684,1.34 c 1.699,0.61 3.203,0.64 4.394,-0.61 2.363,-2.52 0,-5.58 -2.039,-7.51 -2.695,-2.52 -6.094,-3.98 -8.957,-1.16 z m 34.121,47.14 3.75,-2.69 c 2.012,-1.45 3.606,-5.58 0.149,-10.41 -1.594,-2.2 -3.946,-3.65 -6.321,-1.95 -2.722,1.95 -2.109,4.62 -0.801,7.34 l 2.102,4.06 c 0.645,1.3 1.121,2.55 1.121,3.65 z m -26.699,-13.01 -6.152,5.41 -2.977,-3.37 6.16,-5.41 -3.086,-3.49 3,-2.6 3.055,3.48 13.078,-11.48 c 3.77,-3.32 5.691,-2.58 8.758,0.94 l 2.265,2.57 -2.976,2.61 -1.359,-1.56 c -1.844,-2.1 -2.52,-2.26 -4.051,-0.91 l -12.735,11.2 3.575,4.09 -2.981,2.6 z m 42.324,10.77 -2.832,2.04 -0.566,-1.27 c -0.848,-1.17 -1.61,-0.63 -3.34,0.62 l -11.434,8.19 c -5.176,3.72 -9.211,0.03 -12.07,-3.96 -3.547,-4.96 -4.649,-10.58 0.711,-14.75 l 2.598,3.66 c -3.133,2.49 -2.461,5.44 -0.254,8.57 1.679,2.31 4.082,4.55 7.265,2.29 1.36,-0.99 1.36,-2.33 0.762,-3.97 l -2.859,-5.84 c -1.993,-4.31 -3.575,-8.85 1.433,-12.44 4.434,-3.15 8.594,-1.14 11.516,2.89 2.207,3.09 3.054,6.57 2.156,10.29 2.414,-1.73 4.277,-1.25 5.645,0.62 0.851,1.16 1.222,2.13 1.269,3.06 z m -15.281,39.38 -4.934,2.4 -1.972,-4.02 4.921,-2.44 z m -2.461,-15.37 -7.121,4.09 -2.235,-3.92 7.118,-4.08 -2.332,-4.03 3.425,-1.98 2.336,4.06 15.078,-8.67 c 4.364,-2.5 6.094,-1.36 8.426,2.65 l 1.731,2.98 -3.469,1.96 -1.016,-1.79 c -1.386,-2.41 -2.011,-2.72 -3.797,-1.69 l -14.718,8.44 2.726,4.73 -3.429,1.96 z m 36.25,20.98 c -1.672,-4.39 -6.457,-6.64 -12.637,-4.3 -6.242,2.34 -8.332,7.22 -6.691,11.62 1.672,4.41 6.457,6.66 12.695,4.3 6.184,-2.35 8.313,-7.19 6.633,-11.62 z m -23.039,8.73 c -3.067,-8.1 1.223,-14.63 8.73,-17.49 7.453,-2.81 14.973,-0.74 18.028,7.37 3.066,8.1 -1.192,14.63 -8.68,17.47 -7.512,2.82 -14.992,0.75 -18.078,-7.35 z m -8.309,-20.55 24.52,-12.02 1.992,4.02 -24.52,12.02 z m 14.434,35.88 26.609,-6.23 1.028,4.39 -15.051,3.52 c -4.774,1.1 -7.715,4.5 -6.492,9.8 0.789,3.35 3.367,4.91 6.629,4.14 l 18,-4.19 1.023,4.37 -17.488,4.11 c -5.735,1.32 -10.235,0.11 -11.887,-6.9 -0.879,-3.82 -0.027,-7.17 2.844,-9.78 l -0.032,-0.11 -4.226,1 z m 35.234,74.98 -37.929,9.5 v -5.01 l 31.628,-7.18 v -0.12 l -31.238,-8.83 0.086,-5.45 31.524,-7.93 v -0.12 l -31.27,-7.91 0.09,-5.13 37.586,10.29 v 5.24 l -31.942,8.19 v 0.12 l 31.543,9.12 z m -18.488,30.79 4.512,0.8 c 2.441,0.45 6.515,-1.29 7.57,-7.13 0.477,-2.72 -0.109,-5.37 -3.039,-5.92 -3.281,-0.57 -4.766,1.73 -5.781,4.56 l -1.473,4.31 c -0.48,1.4 -1.016,2.61 -1.789,3.38 z m 12.5,9.64 -3.438,-0.63 0.5,-1.28 c 0.243,-1.41 -0.683,-1.59 -2.785,-1.95 l -13.808,-2.5 c -6.317,-1.1 -6.465,-6.57 -5.606,-11.39 1.074,-6 4.336,-10.72 11.055,-9.77 l -0.801,4.41 c -3.984,-0.51 -5.644,2.04 -6.289,5.78 -0.508,2.81 -0.449,6.1 3.399,6.79 1.652,0.3 2.578,-0.61 3.32,-2.2 l 2.246,-6.15 c 1.699,-4.42 3.82,-8.69 9.914,-7.62 5.359,0.97 6.836,5.35 5.957,10.26 -0.684,3.75 -2.551,6.77 -5.871,8.71 2.91,0.53 3.918,2.2 3.488,4.5 -0.265,1.4 -0.683,2.35 -1.281,3.04 z m -29.617,4.02 -7.852,-2.24 1.219,-4.33 7.883,2.26 1.277,-4.48 3.789,1.08 -1.238,4.48 16.687,4.76 c 4.856,1.39 5.254,3.43 3.965,7.91 l -0.926,3.28 -3.828,-1.07 0.567,-1.98 c 0.761,-2.7 0.566,-3.34 -1.387,-3.92 l -16.328,-4.65 -1.504,5.23 -3.801,-1.09 z m -6.692,45.8 6.914,-14.11 c -3.906,-1.53 -8.308,-0.6 -10.378,3.63 -1.946,4 -0.274,8.41 3.464,10.48 z m 1.582,-30.53 -7.644,-2.83 1.531,-4.22 7.676,2.83 1.613,-4.36 3.75,1.38 -1.621,4.37 16.297,6.04 c 4.719,1.73 4.961,3.8 3.34,8.16 l -1.192,3.23 -3.711,-1.39 0.715,-1.92 c 0.965,-2.64 0.821,-3.32 -1.105,-4.02 l -15.899,-5.88 -1.902,5.09 -3.711,-1.37 z m 3.34,37.76 1.965,-3.99 c 3.543,0.85 6.289,-0.67 7.91,-3.99 2.645,-5.39 0,-9.68 -4.336,-11.59 l -8.984,18.36 c -6.035,-2.67 -12.871,-9.29 -8.625,-18 3.293,-6.7 11.055,-8.88 18.43,-5.28 7.363,3.91 10.964,10.26 7.148,18.09 -2.707,5.51 -7.539,7.96 -13.508,6.4 z m -18.386,-5.44 22.82,15.02 -2.469,3.75 -12.902,-8.48 c -4.11,-2.72 -8.614,-2.52 -11.59,2.04 -1.895,2.86 -1.25,5.81 1.531,7.65 l 15.449,10.18 -2.468,3.74 -14.993,-9.86 c -4.902,-3.23 -7.148,-7.37 -3.203,-13.35 2.188,-3.29 5.188,-4.96 9.121,-4.78 l -3.64,-2.4 z m -51.731,73.3 12.305,-9.75 c -2.84,-3.05 -7.235,-4.11 -10.918,-1.19 -3.485,2.75 -3.887,7.46 -1.387,10.94 z m 37.336,-50.91 20.117,18.5 -3.027,3.3 -12.531,-11.51 c -1.532,-1.41 -6.465,-3.28 -10.059,0.66 -2.723,2.94 -1.621,5.48 0.988,7.88 l 13.184,12.13 -3.008,3.29 -12.559,-11.51 c -3.117,-2.87 -7.031,-2.67 -9.953,0.55 -2.976,3.22 -1.582,5.71 0.918,8.01 l 13.176,12.1 -3.027,3.29 -14.778,-13.55 c -4.14,-3.8 -3.379,-8.02 0.313,-12.05 2.383,-2.57 5.84,-3.77 9.211,-3.14 -1.672,-3.06 -0.586,-6.24 1.668,-8.68 2.531,-2.78 5.793,-3.97 9.472,-3.43 l -2.976,-2.71 z m -60.781,66 13.406,-8.17 c -2.441,-3.4 -6.66,-4.95 -10.684,-2.52 -3.796,2.29 -4.765,6.92 -2.722,10.69 z m 24.746,-6.41 3.515,-2.78 c 2.801,2.3 5.957,2.1 8.848,-0.2 4.695,-3.71 4.188,-8.7 1.102,-12.33 l -16.043,12.7 c -4.309,-5.02 -7.598,-13.95 0,-19.96 5.84,-4.62 13.797,-3.23 18.875,3.21 4.992,6.69 5.508,13.97 -1.356,19.39 -4.785,3.79 -10.226,3.94 -14.941,-0.03 z m -37.559,0.62 11.707,24.69 -4.062,1.9 -5.203,-10.97 c -2.981,-6.24 -7.121,-8.84 -13.664,-5.73 l -2.051,-4.3 c 4.316,-2.24 7.969,-1.56 11.914,1.41 l -2.469,-5.17 z m 13.035,14.52 3.809,-2.3 c 2.52,2.64 5.664,2.81 8.809,0.88 5.128,-3.09 5.246,-8.11 2.636,-12.08 l -17.488,10.61 c -3.664,-5.51 -5.812,-14.77 2.469,-19.79 6.347,-3.86 14.082,-1.5 18.34,5.5 4.113,7.28 3.711,14.57 -3.739,19.08 -5.246,3.17 -10.656,2.63 -14.836,-1.9 z m -58.847,21.79 4.277,-1.19 c 1.711,3.21 4.688,4.25 8.254,3.23 5.762,-1.58 7.207,-6.37 5.781,-10.94 l -19.719,5.51 c -2.019,-6.27 -1.589,-15.8 7.708,-18.38 7.207,-2.01 14.003,2.36 16.21,10.24 1.981,8.1 -0.371,15.02 -8.761,17.37 -5.918,1.65 -10.965,-0.37 -13.75,-5.84 z m 2.129,-8.5 15.117,-4.2 c -1.426,-3.94 -5.086,-6.59 -9.61,-5.32 -4.285,1.19 -6.472,5.35 -5.507,9.52 z m -8.418,12.33 1.027,5.78 -5.754,1.02 -1.023,-5.78 z m -41.805,4.17 v 5.86 l -6.016,-0.11 v -5.87 z m 12.293,5.38 -16.063,-36.68 5.204,-0.37 13.195,31.88 h 0.105 l 8.457,-33.44 5.403,-0.36 -10.598,38.58 -5.703,0.39" clip-path="url(#clipPath87)"></path>
  </g>
</svg>
